<?xml version="1.0" encoding="UTF-8" standalone="no"?>
<!DOCTYPE svg PUBLIC "-//W3C//DTD SVG 20010904//EN"
              "http://www.w3.org/TR/2001/REC-SVG-20010904/DTD/svg10.dtd">

<svg xmlns="http://www.w3.org/2000/svg"
     width="2.66667in" height="2.66667in"
     viewBox="0 0 240 240">
  <path id="Seleção"
        fill="white" stroke="white" stroke-width="1"
        d="M 119.04,0.75
           C 131.45,-1.61 129.00,12.21 129.00,20.00
             129.00,22.50 129.22,27.84 128.40,29.98
             127.09,33.40 123.65,35.45 120.02,34.67
             111.77,32.90 113.91,17.53 114.00,11.00
             114.03,9.10 114.02,6.82 114.74,5.04
             115.80,2.44 116.80,2.04 119.04,0.75 Z
           M 63.02,14.78
           C 65.48,14.42 66.45,14.14 68.82,15.46
             72.43,17.46 81.38,32.83 82.32,37.00
             83.22,41.00 80.86,44.94 76.98,46.22
             72.20,47.80 68.73,43.55 66.46,40.00
             62.02,33.02 52.53,20.50 63.02,14.78 Z
           M 175.02,16.75
           C 180.80,15.66 185.57,18.58 184.76,25.00
             184.33,28.41 178.09,38.59 175.99,41.98
             174.63,44.17 173.39,46.23 170.90,47.26
             165.16,49.64 159.48,45.11 160.43,39.00
             160.94,35.74 169.04,21.66 171.39,19.23
             172.91,17.64 173.25,17.71 175.02,16.75 Z
           M 113.00,51.42
           C 121.26,50.42 131.02,51.36 139.00,53.72
             150.23,57.05 160.57,62.75 168.91,71.09
             199.05,101.22 194.40,151.51 160.00,176.25
             149.67,183.69 138.53,187.17 126.00,188.71
             119.34,189.53 113.52,188.76 107.00,187.58
             63.10,179.59 39.99,133.60 56.45,93.00
             66.51,68.19 87.47,55.28 113.00,51.42 Z
           M 20.11,56.02
           C 22.51,55.21 23.36,54.82 26.00,55.42
             28.81,56.05 43.53,64.52 45.57,66.61
             49.11,70.23 48.56,76.36 43.94,78.82
             39.84,81.01 35.59,78.61 32.00,76.57
             25.00,72.60 8.70,65.26 20.11,56.02 Z
           M 214.00,58.81
           C 224.55,56.15 227.88,64.24 223.99,69.67
             221.87,72.64 207.70,80.81 204.00,82.02
             196.89,84.33 190.82,77.04 194.74,71.09
             197.30,67.20 209.44,60.83 214.00,58.81 Z
           M 113.00,66.29
           C 95.34,69.21 80.99,77.85 72.32,94.00
             53.66,128.79 77.55,173.53 118.00,174.00
             133.37,174.18 146.74,169.80 157.96,158.91
             179.75,137.77 179.45,100.73 156.99,80.17
             151.39,75.05 145.15,71.37 138.00,68.86
             129.85,66.00 121.55,65.48 113.00,66.29 Z
           M 4.11,112.02
           C 9.10,110.27 19.36,110.90 25.00,111.00
             27.48,111.05 29.76,111.03 31.85,112.60
             36.32,115.94 37.17,125.82 24.00,126.00
             20.29,126.05 7.82,126.39 5.04,125.26
             -1.49,122.60 -0.75,115.95 4.11,112.02 Z
           M 210.02,114.96
           C 214.31,113.69 232.32,113.16 235.89,114.96
             240.54,117.79 241.00,124.14 236.77,127.40
             234.33,129.29 230.92,128.99 228.00,129.00
             224.54,129.01 212.52,129.36 210.02,128.40
             204.02,126.09 203.00,118.71 210.02,114.96 Z
           M 37.00,157.68
           C 43.88,157.02 49.15,163.00 45.26,168.91
             42.96,172.40 29.19,180.40 25.00,181.50
             16.66,183.71 11.78,176.25 16.01,170.33
             18.51,166.82 32.63,159.23 37.00,157.68 Z
           M 197.02,160.59
           C 198.83,160.41 198.98,160.12 201.00,160.59
             204.13,160.92 217.26,168.49 219.89,170.63
             222.47,172.73 224.27,175.55 223.53,179.00
             222.64,183.14 219.08,185.27 215.00,184.76
             211.60,184.33 195.82,175.31 193.74,172.62
             190.17,168.00 192.47,163.29 197.02,160.59 Z
           M 69.10,192.74
           C 74.62,191.42 79.95,193.46 79.68,200.00
             79.58,202.39 78.26,204.93 77.13,207.00
             74.14,212.51 68.58,225.16 61.00,223.53
             56.40,222.54 54.43,218.37 55.42,214.00
             56.54,209.03 64.85,195.34 69.10,192.74 Z
           M 163.04,193.69
           C 165.61,193.43 166.56,193.19 168.91,194.74
             172.40,197.04 180.40,210.80 181.50,215.00
             182.69,219.49 181.09,224.56 176.00,225.47
             170.86,226.38 167.87,221.73 165.60,218.00
             161.33,210.95 151.51,198.81 163.04,193.69 Z
           M 115.06,206.02
           C 128.77,201.50 126.04,220.06 126.00,228.00
             125.99,230.13 126.07,232.98 125.26,234.96
             123.91,238.29 120.60,240.30 117.00,239.53
             108.60,237.72 110.99,223.55 111.16,217.00
             111.00,215.42 110.94,212.45 111.16,211.00
             112.05,208.11 112.89,207.72 115.06,206.02 Z" />
</svg>
